<mxfile host="app.diagrams.net" modified="2023-11-04T09:55:35.292Z" agent="Mozilla/5.0 (Windows NT 10.0; Win64; x64) AppleWebKit/537.36 (KHTML, like Gecko) Chrome/119.0.0.0 Safari/537.36" etag="wrENwoFHz9KH1Zm23vHx" version="22.0.8" type="device" pages="4">
  <diagram id="prtHgNgQTEPvFCAcTncT" name="Page-1">
    <mxGraphModel dx="1222" dy="1883" grid="1" gridSize="10" guides="1" tooltips="1" connect="1" arrows="1" fold="1" page="1" pageScale="1" pageWidth="827" pageHeight="1169" math="0" shadow="0">
      <root>
        <mxCell id="0" />
        <mxCell id="1" parent="0" />
        <mxCell id="dNxyNK7c78bLwvsdeMH5-19" value="" style="swimlane;html=1;childLayout=stackLayout;resizeParent=1;resizeParentMax=0;horizontal=0;startSize=20;horizontalStack=0;" parent="1" vertex="1">
          <mxGeometry x="267" y="550" width="560" height="470" as="geometry">
            <mxRectangle x="120" y="120" width="40" height="60" as="alternateBounds" />
          </mxGeometry>
        </mxCell>
        <mxCell id="dNxyNK7c78bLwvsdeMH5-27" value="" style="edgeStyle=orthogonalEdgeStyle;rounded=0;orthogonalLoop=1;jettySize=auto;html=1;dashed=1;endArrow=none;endFill=0;" parent="dNxyNK7c78bLwvsdeMH5-19" edge="1">
          <mxGeometry relative="1" as="geometry">
            <mxPoint x="180" y="90" as="sourcePoint" />
            <mxPoint x="180" y="90" as="targetPoint" />
          </mxGeometry>
        </mxCell>
        <mxCell id="dNxyNK7c78bLwvsdeMH5-35" style="edgeStyle=orthogonalEdgeStyle;rounded=0;orthogonalLoop=1;jettySize=auto;html=1;endArrow=classic;endFill=1;" parent="dNxyNK7c78bLwvsdeMH5-19" edge="1">
          <mxGeometry relative="1" as="geometry">
            <mxPoint x="300" y="80" as="sourcePoint" />
            <mxPoint x="300" y="80" as="targetPoint" />
          </mxGeometry>
        </mxCell>
        <mxCell id="zysLelXhh0DluJcw5pJy-2" value="" style="rounded=0;whiteSpace=wrap;html=1;" parent="1" vertex="1">
          <mxGeometry x="40" y="-635" width="1210" height="820" as="geometry" />
        </mxCell>
        <mxCell id="_hNQ7ZMHxFC8y0_ebgMu-2" value="" style="edgeStyle=orthogonalEdgeStyle;rounded=0;orthogonalLoop=1;jettySize=auto;html=1;" parent="1" source="zysLelXhh0DluJcw5pJy-3" target="_hNQ7ZMHxFC8y0_ebgMu-1" edge="1">
          <mxGeometry relative="1" as="geometry" />
        </mxCell>
        <mxCell id="zysLelXhh0DluJcw5pJy-3" value="" style="ellipse;whiteSpace=wrap;html=1;aspect=fixed;fillColor=#000000;" parent="1" vertex="1">
          <mxGeometry x="100" y="-490" width="20" height="20" as="geometry" />
        </mxCell>
        <mxCell id="zysLelXhh0DluJcw5pJy-7" value="добавление" style="text;html=1;strokeColor=none;fillColor=none;align=center;verticalAlign=middle;whiteSpace=wrap;rounded=0;fontSize=9;" parent="1" vertex="1">
          <mxGeometry x="80" y="-460" width="60" height="20" as="geometry" />
        </mxCell>
        <mxCell id="_hNQ7ZMHxFC8y0_ebgMu-4" value="" style="edgeStyle=orthogonalEdgeStyle;rounded=0;orthogonalLoop=1;jettySize=auto;html=1;" parent="1" source="_hNQ7ZMHxFC8y0_ebgMu-1" target="_hNQ7ZMHxFC8y0_ebgMu-3" edge="1">
          <mxGeometry relative="1" as="geometry" />
        </mxCell>
        <mxCell id="_hNQ7ZMHxFC8y0_ebgMu-1" value="&lt;font style=&quot;font-size: 10px;&quot;&gt;определить&lt;br&gt;тип&lt;br&gt;корреспонденции&lt;/font&gt;" style="rounded=1;whiteSpace=wrap;html=1;" parent="1" vertex="1">
          <mxGeometry x="160" y="-500" width="90" height="40" as="geometry" />
        </mxCell>
        <mxCell id="_hNQ7ZMHxFC8y0_ebgMu-7" style="edgeStyle=orthogonalEdgeStyle;rounded=0;orthogonalLoop=1;jettySize=auto;html=1;entryX=0;entryY=0.5;entryDx=0;entryDy=0;" parent="1" source="_hNQ7ZMHxFC8y0_ebgMu-3" target="_hNQ7ZMHxFC8y0_ebgMu-5" edge="1">
          <mxGeometry relative="1" as="geometry">
            <Array as="points">
              <mxPoint x="440" y="-482" />
              <mxPoint x="440" y="-565" />
            </Array>
          </mxGeometry>
        </mxCell>
        <mxCell id="_hNQ7ZMHxFC8y0_ebgMu-8" value="Да" style="edgeLabel;html=1;align=center;verticalAlign=middle;resizable=0;points=[];" parent="_hNQ7ZMHxFC8y0_ebgMu-7" vertex="1" connectable="0">
          <mxGeometry x="0.2863" y="2" relative="1" as="geometry">
            <mxPoint as="offset" />
          </mxGeometry>
        </mxCell>
        <mxCell id="_hNQ7ZMHxFC8y0_ebgMu-13" style="edgeStyle=orthogonalEdgeStyle;rounded=0;orthogonalLoop=1;jettySize=auto;html=1;entryX=0.5;entryY=0;entryDx=0;entryDy=0;" parent="1" source="_hNQ7ZMHxFC8y0_ebgMu-3" target="_hNQ7ZMHxFC8y0_ebgMu-9" edge="1">
          <mxGeometry relative="1" as="geometry" />
        </mxCell>
        <mxCell id="_hNQ7ZMHxFC8y0_ebgMu-14" value="Нет" style="edgeLabel;html=1;align=center;verticalAlign=middle;resizable=0;points=[];" parent="_hNQ7ZMHxFC8y0_ebgMu-13" vertex="1" connectable="0">
          <mxGeometry x="0.1758" y="-1" relative="1" as="geometry">
            <mxPoint as="offset" />
          </mxGeometry>
        </mxCell>
        <mxCell id="_hNQ7ZMHxFC8y0_ebgMu-3" value="это письмо?" style="rhombus;whiteSpace=wrap;html=1;fillColor=#FFFFFF;" parent="1" vertex="1">
          <mxGeometry x="310" y="-510" width="120" height="55" as="geometry" />
        </mxCell>
        <mxCell id="_hNQ7ZMHxFC8y0_ebgMu-26" value="" style="edgeStyle=orthogonalEdgeStyle;rounded=0;orthogonalLoop=1;jettySize=auto;html=1;" parent="1" source="_hNQ7ZMHxFC8y0_ebgMu-5" target="_hNQ7ZMHxFC8y0_ebgMu-25" edge="1">
          <mxGeometry relative="1" as="geometry" />
        </mxCell>
        <mxCell id="_hNQ7ZMHxFC8y0_ebgMu-27" value="Да" style="edgeLabel;html=1;align=center;verticalAlign=middle;resizable=0;points=[];" parent="_hNQ7ZMHxFC8y0_ebgMu-26" vertex="1" connectable="0">
          <mxGeometry x="-0.1678" y="-5" relative="1" as="geometry">
            <mxPoint as="offset" />
          </mxGeometry>
        </mxCell>
        <mxCell id="_hNQ7ZMHxFC8y0_ebgMu-29" style="edgeStyle=orthogonalEdgeStyle;rounded=0;orthogonalLoop=1;jettySize=auto;html=1;entryX=0;entryY=0.5;entryDx=0;entryDy=0;" parent="1" source="_hNQ7ZMHxFC8y0_ebgMu-5" target="_hNQ7ZMHxFC8y0_ebgMu-28" edge="1">
          <mxGeometry relative="1" as="geometry">
            <Array as="points">
              <mxPoint x="520" y="-490" />
            </Array>
          </mxGeometry>
        </mxCell>
        <mxCell id="_hNQ7ZMHxFC8y0_ebgMu-30" value="Нет" style="edgeLabel;html=1;align=center;verticalAlign=middle;resizable=0;points=[];" parent="_hNQ7ZMHxFC8y0_ebgMu-29" vertex="1" connectable="0">
          <mxGeometry x="0.3779" y="-2" relative="1" as="geometry">
            <mxPoint as="offset" />
          </mxGeometry>
        </mxCell>
        <mxCell id="_hNQ7ZMHxFC8y0_ebgMu-5" value="письмо&lt;br&gt;должно быть важное?" style="rhombus;whiteSpace=wrap;html=1;fillColor=#FFFFFF;" parent="1" vertex="1">
          <mxGeometry x="460" y="-600" width="120" height="70" as="geometry" />
        </mxCell>
        <mxCell id="_hNQ7ZMHxFC8y0_ebgMu-79" style="edgeStyle=orthogonalEdgeStyle;rounded=0;orthogonalLoop=1;jettySize=auto;html=1;entryX=0;entryY=0.5;entryDx=0;entryDy=0;" parent="1" source="_hNQ7ZMHxFC8y0_ebgMu-9" target="_hNQ7ZMHxFC8y0_ebgMu-41" edge="1">
          <mxGeometry relative="1" as="geometry">
            <Array as="points">
              <mxPoint x="440" y="-260" />
              <mxPoint x="440" y="-405" />
            </Array>
          </mxGeometry>
        </mxCell>
        <mxCell id="_hNQ7ZMHxFC8y0_ebgMu-80" value="Да" style="edgeLabel;html=1;align=center;verticalAlign=middle;resizable=0;points=[];" parent="_hNQ7ZMHxFC8y0_ebgMu-79" vertex="1" connectable="0">
          <mxGeometry x="0.0933" y="3" relative="1" as="geometry">
            <mxPoint y="1" as="offset" />
          </mxGeometry>
        </mxCell>
        <mxCell id="_hNQ7ZMHxFC8y0_ebgMu-82" style="edgeStyle=orthogonalEdgeStyle;rounded=0;orthogonalLoop=1;jettySize=auto;html=1;entryX=0.5;entryY=0;entryDx=0;entryDy=0;" parent="1" source="_hNQ7ZMHxFC8y0_ebgMu-9" target="_hNQ7ZMHxFC8y0_ebgMu-22" edge="1">
          <mxGeometry relative="1" as="geometry" />
        </mxCell>
        <mxCell id="_hNQ7ZMHxFC8y0_ebgMu-83" value="Нет" style="edgeLabel;html=1;align=center;verticalAlign=middle;resizable=0;points=[];" parent="_hNQ7ZMHxFC8y0_ebgMu-82" vertex="1" connectable="0">
          <mxGeometry x="0.2379" y="-3" relative="1" as="geometry">
            <mxPoint y="1" as="offset" />
          </mxGeometry>
        </mxCell>
        <mxCell id="_hNQ7ZMHxFC8y0_ebgMu-9" value="это приказ?" style="rhombus;whiteSpace=wrap;html=1;fillColor=#FFFFFF;" parent="1" vertex="1">
          <mxGeometry x="310" y="-290" width="120" height="60" as="geometry" />
        </mxCell>
        <mxCell id="_hNQ7ZMHxFC8y0_ebgMu-21" value="" style="edgeStyle=orthogonalEdgeStyle;rounded=0;orthogonalLoop=1;jettySize=auto;html=1;" parent="1" source="_hNQ7ZMHxFC8y0_ebgMu-15" target="_hNQ7ZMHxFC8y0_ebgMu-20" edge="1">
          <mxGeometry relative="1" as="geometry" />
        </mxCell>
        <mxCell id="_hNQ7ZMHxFC8y0_ebgMu-15" value="&lt;font style=&quot;font-size: 10px;&quot;&gt;подтвердить&lt;br&gt;создание&lt;br&gt;письма&lt;/font&gt;" style="rounded=1;whiteSpace=wrap;html=1;" parent="1" vertex="1">
          <mxGeometry x="1081" y="-440" width="100" height="40" as="geometry" />
        </mxCell>
        <mxCell id="_hNQ7ZMHxFC8y0_ebgMu-20" value="" style="ellipse;whiteSpace=wrap;html=1;aspect=fixed;fillColor=#000000;strokeColor=#33FF33;strokeWidth=5;" parent="1" vertex="1">
          <mxGeometry x="1221" y="-430" width="20" height="20" as="geometry" />
        </mxCell>
        <mxCell id="_hNQ7ZMHxFC8y0_ebgMu-85" style="edgeStyle=orthogonalEdgeStyle;rounded=0;orthogonalLoop=1;jettySize=auto;html=1;entryX=0;entryY=0.5;entryDx=0;entryDy=0;" parent="1" source="_hNQ7ZMHxFC8y0_ebgMu-22" target="_hNQ7ZMHxFC8y0_ebgMu-72" edge="1">
          <mxGeometry relative="1" as="geometry">
            <Array as="points">
              <mxPoint x="440" y="-120" />
              <mxPoint x="440" y="-225" />
            </Array>
          </mxGeometry>
        </mxCell>
        <mxCell id="_hNQ7ZMHxFC8y0_ebgMu-86" value="Да" style="edgeLabel;html=1;align=center;verticalAlign=middle;resizable=0;points=[];" parent="_hNQ7ZMHxFC8y0_ebgMu-85" vertex="1" connectable="0">
          <mxGeometry x="0.3062" y="4" relative="1" as="geometry">
            <mxPoint y="1" as="offset" />
          </mxGeometry>
        </mxCell>
        <mxCell id="_hNQ7ZMHxFC8y0_ebgMu-125" value="" style="edgeStyle=orthogonalEdgeStyle;rounded=0;orthogonalLoop=1;jettySize=auto;html=1;" parent="1" source="_hNQ7ZMHxFC8y0_ebgMu-22" target="_hNQ7ZMHxFC8y0_ebgMu-124" edge="1">
          <mxGeometry relative="1" as="geometry" />
        </mxCell>
        <mxCell id="_hNQ7ZMHxFC8y0_ebgMu-126" value="Нет" style="edgeLabel;html=1;align=center;verticalAlign=middle;resizable=0;points=[];" parent="_hNQ7ZMHxFC8y0_ebgMu-125" vertex="1" connectable="0">
          <mxGeometry x="-0.3424" relative="1" as="geometry">
            <mxPoint y="1" as="offset" />
          </mxGeometry>
        </mxCell>
        <mxCell id="_hNQ7ZMHxFC8y0_ebgMu-22" value="это постановление?" style="rhombus;whiteSpace=wrap;html=1;fillColor=#FFFFFF;" parent="1" vertex="1">
          <mxGeometry x="310" y="-150" width="120" height="60" as="geometry" />
        </mxCell>
        <mxCell id="_hNQ7ZMHxFC8y0_ebgMu-31" style="edgeStyle=orthogonalEdgeStyle;rounded=0;orthogonalLoop=1;jettySize=auto;html=1;entryX=0.5;entryY=0;entryDx=0;entryDy=0;" parent="1" source="_hNQ7ZMHxFC8y0_ebgMu-25" target="_hNQ7ZMHxFC8y0_ebgMu-28" edge="1">
          <mxGeometry relative="1" as="geometry">
            <Array as="points">
              <mxPoint x="810" y="-565" />
            </Array>
          </mxGeometry>
        </mxCell>
        <mxCell id="_hNQ7ZMHxFC8y0_ebgMu-25" value="&lt;font style=&quot;font-size: 10px;&quot;&gt;сделать письмо&lt;br&gt;важным&lt;/font&gt;&lt;span style=&quot;font-size: 10px;&quot;&gt;&lt;br&gt;&lt;/span&gt;" style="rounded=1;whiteSpace=wrap;html=1;" parent="1" vertex="1">
          <mxGeometry x="620" y="-585" width="100" height="40" as="geometry" />
        </mxCell>
        <mxCell id="_hNQ7ZMHxFC8y0_ebgMu-33" value="" style="edgeStyle=orthogonalEdgeStyle;rounded=0;orthogonalLoop=1;jettySize=auto;html=1;" parent="1" source="_hNQ7ZMHxFC8y0_ebgMu-28" target="_hNQ7ZMHxFC8y0_ebgMu-32" edge="1">
          <mxGeometry relative="1" as="geometry" />
        </mxCell>
        <mxCell id="_hNQ7ZMHxFC8y0_ebgMu-36" value="Да" style="edgeLabel;html=1;align=center;verticalAlign=middle;resizable=0;points=[];" parent="_hNQ7ZMHxFC8y0_ebgMu-33" vertex="1" connectable="0">
          <mxGeometry x="0.0353" y="1" relative="1" as="geometry">
            <mxPoint as="offset" />
          </mxGeometry>
        </mxCell>
        <mxCell id="_hNQ7ZMHxFC8y0_ebgMu-34" style="edgeStyle=orthogonalEdgeStyle;rounded=0;orthogonalLoop=1;jettySize=auto;html=1;entryX=0;entryY=0.5;entryDx=0;entryDy=0;" parent="1" source="_hNQ7ZMHxFC8y0_ebgMu-28" target="l2N0_MCB98eP9rFO-y8g-1" edge="1">
          <mxGeometry relative="1" as="geometry">
            <Array as="points">
              <mxPoint x="810" y="-420" />
            </Array>
            <mxPoint x="1020" y="-420" as="targetPoint" />
          </mxGeometry>
        </mxCell>
        <mxCell id="_hNQ7ZMHxFC8y0_ebgMu-37" value="Нет" style="edgeLabel;html=1;align=center;verticalAlign=middle;resizable=0;points=[];" parent="_hNQ7ZMHxFC8y0_ebgMu-34" vertex="1" connectable="0">
          <mxGeometry x="0.2096" y="-1" relative="1" as="geometry">
            <mxPoint as="offset" />
          </mxGeometry>
        </mxCell>
        <mxCell id="_hNQ7ZMHxFC8y0_ebgMu-28" value="письмо&lt;br&gt;должно быть на контроле?" style="rhombus;whiteSpace=wrap;html=1;fillColor=#FFFFFF;" parent="1" vertex="1">
          <mxGeometry x="750" y="-525" width="120" height="70" as="geometry" />
        </mxCell>
        <mxCell id="l2N0_MCB98eP9rFO-y8g-5" style="edgeStyle=orthogonalEdgeStyle;rounded=0;orthogonalLoop=1;jettySize=auto;html=1;entryX=0.5;entryY=0;entryDx=0;entryDy=0;" edge="1" parent="1" source="_hNQ7ZMHxFC8y0_ebgMu-32" target="l2N0_MCB98eP9rFO-y8g-1">
          <mxGeometry relative="1" as="geometry" />
        </mxCell>
        <mxCell id="_hNQ7ZMHxFC8y0_ebgMu-32" value="&lt;font style=&quot;font-size: 10px;&quot;&gt;сделать письмо&lt;br&gt;на контроле&lt;/font&gt;&lt;span style=&quot;font-size: 10px;&quot;&gt;&lt;br&gt;&lt;/span&gt;" style="rounded=1;whiteSpace=wrap;html=1;" parent="1" vertex="1">
          <mxGeometry x="910" y="-510" width="100" height="40" as="geometry" />
        </mxCell>
        <mxCell id="_hNQ7ZMHxFC8y0_ebgMu-39" style="edgeStyle=orthogonalEdgeStyle;rounded=0;orthogonalLoop=1;jettySize=auto;html=1;entryX=0;entryY=0.5;entryDx=0;entryDy=0;" parent="1" source="_hNQ7ZMHxFC8y0_ebgMu-41" target="_hNQ7ZMHxFC8y0_ebgMu-48" edge="1">
          <mxGeometry relative="1" as="geometry">
            <Array as="points">
              <mxPoint x="520" y="-330" />
            </Array>
          </mxGeometry>
        </mxCell>
        <mxCell id="_hNQ7ZMHxFC8y0_ebgMu-40" value="Нет" style="edgeLabel;html=1;align=center;verticalAlign=middle;resizable=0;points=[];" parent="_hNQ7ZMHxFC8y0_ebgMu-39" vertex="1" connectable="0">
          <mxGeometry x="0.3779" y="-2" relative="1" as="geometry">
            <mxPoint as="offset" />
          </mxGeometry>
        </mxCell>
        <mxCell id="_hNQ7ZMHxFC8y0_ebgMu-52" style="edgeStyle=orthogonalEdgeStyle;rounded=0;orthogonalLoop=1;jettySize=auto;html=1;entryX=0;entryY=0.5;entryDx=0;entryDy=0;" parent="1" source="_hNQ7ZMHxFC8y0_ebgMu-41" target="_hNQ7ZMHxFC8y0_ebgMu-45" edge="1">
          <mxGeometry relative="1" as="geometry" />
        </mxCell>
        <mxCell id="_hNQ7ZMHxFC8y0_ebgMu-54" value="Да" style="edgeLabel;html=1;align=center;verticalAlign=middle;resizable=0;points=[];" parent="_hNQ7ZMHxFC8y0_ebgMu-52" vertex="1" connectable="0">
          <mxGeometry x="0.1417" y="2" relative="1" as="geometry">
            <mxPoint as="offset" />
          </mxGeometry>
        </mxCell>
        <mxCell id="_hNQ7ZMHxFC8y0_ebgMu-41" value="приказ&lt;br&gt;назначен ответственным лицом?" style="rhombus;whiteSpace=wrap;html=1;fillColor=#FFFFFF;" parent="1" vertex="1">
          <mxGeometry x="460" y="-440" width="120" height="70" as="geometry" />
        </mxCell>
        <mxCell id="_hNQ7ZMHxFC8y0_ebgMu-58" style="edgeStyle=orthogonalEdgeStyle;rounded=0;orthogonalLoop=1;jettySize=auto;html=1;entryX=0;entryY=0.5;entryDx=0;entryDy=0;" parent="1" source="_hNQ7ZMHxFC8y0_ebgMu-42" target="_hNQ7ZMHxFC8y0_ebgMu-43" edge="1">
          <mxGeometry relative="1" as="geometry" />
        </mxCell>
        <mxCell id="_hNQ7ZMHxFC8y0_ebgMu-42" value="&lt;font style=&quot;font-size: 10px;&quot;&gt;подтвердить&lt;br&gt;создание&lt;br&gt;приказа&lt;/font&gt;" style="rounded=1;whiteSpace=wrap;html=1;" parent="1" vertex="1">
          <mxGeometry x="1081" y="-280" width="100" height="40" as="geometry" />
        </mxCell>
        <mxCell id="_hNQ7ZMHxFC8y0_ebgMu-43" value="" style="ellipse;whiteSpace=wrap;html=1;aspect=fixed;fillColor=#000000;strokeColor=#33FF33;strokeWidth=5;" parent="1" vertex="1">
          <mxGeometry x="1221" y="-270" width="20" height="20" as="geometry" />
        </mxCell>
        <mxCell id="_hNQ7ZMHxFC8y0_ebgMu-44" style="edgeStyle=orthogonalEdgeStyle;rounded=0;orthogonalLoop=1;jettySize=auto;html=1;entryX=0.5;entryY=0;entryDx=0;entryDy=0;" parent="1" source="_hNQ7ZMHxFC8y0_ebgMu-45" target="_hNQ7ZMHxFC8y0_ebgMu-48" edge="1">
          <mxGeometry relative="1" as="geometry">
            <Array as="points">
              <mxPoint x="810" y="-405" />
            </Array>
          </mxGeometry>
        </mxCell>
        <mxCell id="_hNQ7ZMHxFC8y0_ebgMu-45" value="&lt;span style=&quot;font-size: 10px;&quot;&gt;назначить приказ ответственным лицом&lt;br&gt;&lt;/span&gt;" style="rounded=1;whiteSpace=wrap;html=1;" parent="1" vertex="1">
          <mxGeometry x="620" y="-425" width="100" height="40" as="geometry" />
        </mxCell>
        <mxCell id="_hNQ7ZMHxFC8y0_ebgMu-46" style="edgeStyle=orthogonalEdgeStyle;rounded=0;orthogonalLoop=1;jettySize=auto;html=1;entryX=0;entryY=0.5;entryDx=0;entryDy=0;" parent="1" source="_hNQ7ZMHxFC8y0_ebgMu-48" target="l2N0_MCB98eP9rFO-y8g-9" edge="1">
          <mxGeometry relative="1" as="geometry">
            <Array as="points">
              <mxPoint x="810" y="-260" />
            </Array>
            <mxPoint x="1000" y="-250" as="targetPoint" />
          </mxGeometry>
        </mxCell>
        <mxCell id="_hNQ7ZMHxFC8y0_ebgMu-47" value="Нет" style="edgeLabel;html=1;align=center;verticalAlign=middle;resizable=0;points=[];" parent="_hNQ7ZMHxFC8y0_ebgMu-46" vertex="1" connectable="0">
          <mxGeometry x="0.2096" y="-1" relative="1" as="geometry">
            <mxPoint as="offset" />
          </mxGeometry>
        </mxCell>
        <mxCell id="_hNQ7ZMHxFC8y0_ebgMu-55" style="edgeStyle=orthogonalEdgeStyle;rounded=0;orthogonalLoop=1;jettySize=auto;html=1;entryX=0;entryY=0.5;entryDx=0;entryDy=0;" parent="1" source="_hNQ7ZMHxFC8y0_ebgMu-48" target="_hNQ7ZMHxFC8y0_ebgMu-49" edge="1">
          <mxGeometry relative="1" as="geometry" />
        </mxCell>
        <mxCell id="_hNQ7ZMHxFC8y0_ebgMu-56" value="Да" style="edgeLabel;html=1;align=center;verticalAlign=middle;resizable=0;points=[];" parent="_hNQ7ZMHxFC8y0_ebgMu-55" vertex="1" connectable="0">
          <mxGeometry x="0.1417" relative="1" as="geometry">
            <mxPoint as="offset" />
          </mxGeometry>
        </mxCell>
        <mxCell id="_hNQ7ZMHxFC8y0_ebgMu-48" value="приказ&lt;br&gt;на контроле выполнения?" style="rhombus;whiteSpace=wrap;html=1;fillColor=#FFFFFF;" parent="1" vertex="1">
          <mxGeometry x="750" y="-365" width="120" height="70" as="geometry" />
        </mxCell>
        <mxCell id="l2N0_MCB98eP9rFO-y8g-11" style="edgeStyle=orthogonalEdgeStyle;rounded=0;orthogonalLoop=1;jettySize=auto;html=1;entryX=0.5;entryY=0;entryDx=0;entryDy=0;" edge="1" parent="1" source="_hNQ7ZMHxFC8y0_ebgMu-49" target="l2N0_MCB98eP9rFO-y8g-9">
          <mxGeometry relative="1" as="geometry" />
        </mxCell>
        <mxCell id="_hNQ7ZMHxFC8y0_ebgMu-49" value="&lt;font style=&quot;font-size: 10px;&quot;&gt;сделать приказ&lt;br&gt;на контроле выполнения&lt;/font&gt;&lt;span style=&quot;font-size: 10px;&quot;&gt;&lt;br&gt;&lt;/span&gt;" style="rounded=1;whiteSpace=wrap;html=1;" parent="1" vertex="1">
          <mxGeometry x="910" y="-350" width="100" height="40" as="geometry" />
        </mxCell>
        <mxCell id="_hNQ7ZMHxFC8y0_ebgMu-70" style="edgeStyle=orthogonalEdgeStyle;rounded=0;orthogonalLoop=1;jettySize=auto;html=1;entryX=0;entryY=0.5;entryDx=0;entryDy=0;" parent="1" source="_hNQ7ZMHxFC8y0_ebgMu-72" target="l2N0_MCB98eP9rFO-y8g-13" edge="1">
          <mxGeometry relative="1" as="geometry">
            <Array as="points">
              <mxPoint x="520" y="-150" />
            </Array>
            <mxPoint x="720" y="-150" as="targetPoint" />
          </mxGeometry>
        </mxCell>
        <mxCell id="_hNQ7ZMHxFC8y0_ebgMu-71" value="Нет" style="edgeLabel;html=1;align=center;verticalAlign=middle;resizable=0;points=[];" parent="_hNQ7ZMHxFC8y0_ebgMu-70" vertex="1" connectable="0">
          <mxGeometry x="0.3779" y="-2" relative="1" as="geometry">
            <mxPoint as="offset" />
          </mxGeometry>
        </mxCell>
        <mxCell id="_hNQ7ZMHxFC8y0_ebgMu-87" style="edgeStyle=orthogonalEdgeStyle;rounded=0;orthogonalLoop=1;jettySize=auto;html=1;entryX=0;entryY=0.5;entryDx=0;entryDy=0;" parent="1" source="_hNQ7ZMHxFC8y0_ebgMu-72" target="_hNQ7ZMHxFC8y0_ebgMu-74" edge="1">
          <mxGeometry relative="1" as="geometry" />
        </mxCell>
        <mxCell id="_hNQ7ZMHxFC8y0_ebgMu-88" value="Да" style="edgeLabel;html=1;align=center;verticalAlign=middle;resizable=0;points=[];" parent="_hNQ7ZMHxFC8y0_ebgMu-87" vertex="1" connectable="0">
          <mxGeometry x="0.2875" y="-4" relative="1" as="geometry">
            <mxPoint x="-1" as="offset" />
          </mxGeometry>
        </mxCell>
        <mxCell id="_hNQ7ZMHxFC8y0_ebgMu-72" value="указать&lt;br&gt;в постановление&lt;br&gt;список&lt;br&gt;рассылок?" style="rhombus;whiteSpace=wrap;html=1;fillColor=#FFFFFF;" parent="1" vertex="1">
          <mxGeometry x="460" y="-260" width="120" height="70" as="geometry" />
        </mxCell>
        <mxCell id="_hNQ7ZMHxFC8y0_ebgMu-96" value="" style="edgeStyle=orthogonalEdgeStyle;rounded=0;orthogonalLoop=1;jettySize=auto;html=1;" parent="1" source="_hNQ7ZMHxFC8y0_ebgMu-73" target="_hNQ7ZMHxFC8y0_ebgMu-94" edge="1">
          <mxGeometry relative="1" as="geometry" />
        </mxCell>
        <mxCell id="_hNQ7ZMHxFC8y0_ebgMu-73" value="&lt;font style=&quot;font-size: 10px;&quot;&gt;подтвердить&lt;br&gt;создание&lt;br&gt;постановления&lt;br&gt;&lt;/font&gt;" style="rounded=1;whiteSpace=wrap;html=1;" parent="1" vertex="1">
          <mxGeometry x="797" y="-170" width="100" height="40" as="geometry" />
        </mxCell>
        <mxCell id="l2N0_MCB98eP9rFO-y8g-14" style="edgeStyle=orthogonalEdgeStyle;rounded=0;orthogonalLoop=1;jettySize=auto;html=1;entryX=0.5;entryY=0;entryDx=0;entryDy=0;" edge="1" parent="1" source="_hNQ7ZMHxFC8y0_ebgMu-74" target="l2N0_MCB98eP9rFO-y8g-13">
          <mxGeometry relative="1" as="geometry" />
        </mxCell>
        <mxCell id="_hNQ7ZMHxFC8y0_ebgMu-74" value="&lt;span style=&quot;font-size: 10px;&quot;&gt;назначить приказ ответственным лицом&lt;br&gt;&lt;/span&gt;" style="rounded=1;whiteSpace=wrap;html=1;" parent="1" vertex="1">
          <mxGeometry x="620" y="-245" width="100" height="40" as="geometry" />
        </mxCell>
        <mxCell id="_hNQ7ZMHxFC8y0_ebgMu-94" value="" style="ellipse;whiteSpace=wrap;html=1;aspect=fixed;fillColor=#000000;strokeColor=#33FF33;strokeWidth=5;" parent="1" vertex="1">
          <mxGeometry x="937" y="-160" width="20" height="20" as="geometry" />
        </mxCell>
        <mxCell id="_hNQ7ZMHxFC8y0_ebgMu-113" style="edgeStyle=orthogonalEdgeStyle;rounded=0;orthogonalLoop=1;jettySize=auto;html=1;entryX=0;entryY=0.5;entryDx=0;entryDy=0;" parent="1" source="_hNQ7ZMHxFC8y0_ebgMu-100" target="_hNQ7ZMHxFC8y0_ebgMu-105" edge="1">
          <mxGeometry relative="1" as="geometry" />
        </mxCell>
        <mxCell id="_hNQ7ZMHxFC8y0_ebgMu-114" value="Да" style="edgeLabel;html=1;align=center;verticalAlign=middle;resizable=0;points=[];" parent="_hNQ7ZMHxFC8y0_ebgMu-113" vertex="1" connectable="0">
          <mxGeometry x="0.1417" y="2" relative="1" as="geometry">
            <mxPoint as="offset" />
          </mxGeometry>
        </mxCell>
        <mxCell id="_hNQ7ZMHxFC8y0_ebgMu-115" value="" style="edgeStyle=orthogonalEdgeStyle;rounded=0;orthogonalLoop=1;jettySize=auto;html=1;entryX=0;entryY=0.25;entryDx=0;entryDy=0;" parent="1" source="_hNQ7ZMHxFC8y0_ebgMu-100" target="_hNQ7ZMHxFC8y0_ebgMu-112" edge="1">
          <mxGeometry relative="1" as="geometry">
            <mxPoint x="520" y="20" as="targetPoint" />
            <Array as="points">
              <mxPoint x="520" y="45" />
            </Array>
          </mxGeometry>
        </mxCell>
        <mxCell id="_hNQ7ZMHxFC8y0_ebgMu-116" value="Нет" style="edgeLabel;html=1;align=center;verticalAlign=middle;resizable=0;points=[];" parent="_hNQ7ZMHxFC8y0_ebgMu-115" vertex="1" connectable="0">
          <mxGeometry x="-0.0958" y="-3" relative="1" as="geometry">
            <mxPoint x="10" y="-8" as="offset" />
          </mxGeometry>
        </mxCell>
        <mxCell id="_hNQ7ZMHxFC8y0_ebgMu-100" value="причина&lt;br&gt;от физического&lt;br&gt;лица" style="rhombus;whiteSpace=wrap;html=1;fillColor=#FFFFFF;" parent="1" vertex="1">
          <mxGeometry x="460" y="-90" width="120" height="70" as="geometry" />
        </mxCell>
        <mxCell id="_hNQ7ZMHxFC8y0_ebgMu-101" style="edgeStyle=orthogonalEdgeStyle;rounded=0;orthogonalLoop=1;jettySize=auto;html=1;entryX=0;entryY=0.5;entryDx=0;entryDy=0;" parent="1" source="_hNQ7ZMHxFC8y0_ebgMu-102" target="_hNQ7ZMHxFC8y0_ebgMu-103" edge="1">
          <mxGeometry relative="1" as="geometry" />
        </mxCell>
        <mxCell id="_hNQ7ZMHxFC8y0_ebgMu-102" value="&lt;font style=&quot;font-size: 10px;&quot;&gt;подтвердить&lt;br&gt;создание&lt;br&gt;жалобы&lt;/font&gt;" style="rounded=1;whiteSpace=wrap;html=1;" parent="1" vertex="1">
          <mxGeometry x="977" y="-25" width="100" height="40" as="geometry" />
        </mxCell>
        <mxCell id="_hNQ7ZMHxFC8y0_ebgMu-103" value="" style="ellipse;whiteSpace=wrap;html=1;aspect=fixed;fillColor=#000000;strokeColor=#33FF33;strokeWidth=5;" parent="1" vertex="1">
          <mxGeometry x="1117" y="-15" width="20" height="20" as="geometry" />
        </mxCell>
        <mxCell id="l2N0_MCB98eP9rFO-y8g-18" style="edgeStyle=orthogonalEdgeStyle;rounded=0;orthogonalLoop=1;jettySize=auto;html=1;entryX=0.5;entryY=0;entryDx=0;entryDy=0;" edge="1" parent="1" source="_hNQ7ZMHxFC8y0_ebgMu-105" target="l2N0_MCB98eP9rFO-y8g-16">
          <mxGeometry relative="1" as="geometry" />
        </mxCell>
        <mxCell id="_hNQ7ZMHxFC8y0_ebgMu-105" value="&lt;span style=&quot;font-size: 10px;&quot;&gt;ввести данные физического лица&lt;br&gt;&lt;/span&gt;" style="rounded=1;whiteSpace=wrap;html=1;" parent="1" vertex="1">
          <mxGeometry x="620" y="-75" width="100" height="40" as="geometry" />
        </mxCell>
        <mxCell id="_hNQ7ZMHxFC8y0_ebgMu-121" value="" style="edgeStyle=orthogonalEdgeStyle;rounded=0;orthogonalLoop=1;jettySize=auto;html=1;" parent="1" source="_hNQ7ZMHxFC8y0_ebgMu-111" target="_hNQ7ZMHxFC8y0_ebgMu-102" edge="1">
          <mxGeometry relative="1" as="geometry" />
        </mxCell>
        <mxCell id="_hNQ7ZMHxFC8y0_ebgMu-111" value="&lt;span style=&quot;font-size: 10px;&quot;&gt;ввести срок ответа&lt;br&gt;&lt;/span&gt;" style="rounded=1;whiteSpace=wrap;html=1;" parent="1" vertex="1">
          <mxGeometry x="827" y="-25" width="100" height="40" as="geometry" />
        </mxCell>
        <mxCell id="l2N0_MCB98eP9rFO-y8g-19" style="edgeStyle=orthogonalEdgeStyle;rounded=0;orthogonalLoop=1;jettySize=auto;html=1;entryX=0.5;entryY=1;entryDx=0;entryDy=0;" edge="1" parent="1" source="_hNQ7ZMHxFC8y0_ebgMu-112" target="l2N0_MCB98eP9rFO-y8g-16">
          <mxGeometry relative="1" as="geometry" />
        </mxCell>
        <mxCell id="_hNQ7ZMHxFC8y0_ebgMu-112" value="&lt;span style=&quot;font-size: 10px;&quot;&gt;ввести данные юридического лица&lt;br&gt;&lt;/span&gt;" style="rounded=1;whiteSpace=wrap;html=1;" parent="1" vertex="1">
          <mxGeometry x="620" y="35" width="100" height="40" as="geometry" />
        </mxCell>
        <mxCell id="_hNQ7ZMHxFC8y0_ebgMu-127" style="edgeStyle=orthogonalEdgeStyle;rounded=0;orthogonalLoop=1;jettySize=auto;html=1;entryX=0;entryY=0.5;entryDx=0;entryDy=0;" parent="1" source="_hNQ7ZMHxFC8y0_ebgMu-124" target="_hNQ7ZMHxFC8y0_ebgMu-100" edge="1">
          <mxGeometry relative="1" as="geometry" />
        </mxCell>
        <mxCell id="_hNQ7ZMHxFC8y0_ebgMu-124" value="&lt;span style=&quot;font-size: 10px;&quot;&gt;создание жалобы&lt;br&gt;&lt;/span&gt;" style="rounded=1;whiteSpace=wrap;html=1;" parent="1" vertex="1">
          <mxGeometry x="320" y="-35" width="100" height="40" as="geometry" />
        </mxCell>
        <mxCell id="l2N0_MCB98eP9rFO-y8g-6" style="edgeStyle=orthogonalEdgeStyle;rounded=0;orthogonalLoop=1;jettySize=auto;html=1;entryX=0;entryY=0.5;entryDx=0;entryDy=0;" edge="1" parent="1" source="l2N0_MCB98eP9rFO-y8g-1" target="_hNQ7ZMHxFC8y0_ebgMu-15">
          <mxGeometry relative="1" as="geometry" />
        </mxCell>
        <mxCell id="l2N0_MCB98eP9rFO-y8g-1" value="" style="rounded=1;whiteSpace=wrap;html=1;" vertex="1" parent="1">
          <mxGeometry x="1030" y="-435" width="30" height="30" as="geometry" />
        </mxCell>
        <mxCell id="l2N0_MCB98eP9rFO-y8g-12" value="" style="edgeStyle=orthogonalEdgeStyle;rounded=0;orthogonalLoop=1;jettySize=auto;html=1;" edge="1" parent="1" source="l2N0_MCB98eP9rFO-y8g-9" target="_hNQ7ZMHxFC8y0_ebgMu-42">
          <mxGeometry relative="1" as="geometry" />
        </mxCell>
        <mxCell id="l2N0_MCB98eP9rFO-y8g-9" value="" style="rounded=1;whiteSpace=wrap;html=1;" vertex="1" parent="1">
          <mxGeometry x="1030" y="-275" width="30" height="30" as="geometry" />
        </mxCell>
        <mxCell id="l2N0_MCB98eP9rFO-y8g-15" value="" style="edgeStyle=orthogonalEdgeStyle;rounded=0;orthogonalLoop=1;jettySize=auto;html=1;" edge="1" parent="1" source="l2N0_MCB98eP9rFO-y8g-13" target="_hNQ7ZMHxFC8y0_ebgMu-73">
          <mxGeometry relative="1" as="geometry" />
        </mxCell>
        <mxCell id="l2N0_MCB98eP9rFO-y8g-13" value="" style="rounded=1;whiteSpace=wrap;html=1;" vertex="1" parent="1">
          <mxGeometry x="740" y="-165" width="30" height="30" as="geometry" />
        </mxCell>
        <mxCell id="l2N0_MCB98eP9rFO-y8g-20" value="" style="edgeStyle=orthogonalEdgeStyle;rounded=0;orthogonalLoop=1;jettySize=auto;html=1;" edge="1" parent="1" source="l2N0_MCB98eP9rFO-y8g-16" target="_hNQ7ZMHxFC8y0_ebgMu-111">
          <mxGeometry relative="1" as="geometry" />
        </mxCell>
        <mxCell id="l2N0_MCB98eP9rFO-y8g-16" value="" style="rounded=1;whiteSpace=wrap;html=1;" vertex="1" parent="1">
          <mxGeometry x="760" y="-20" width="30" height="30" as="geometry" />
        </mxCell>
      </root>
    </mxGraphModel>
  </diagram>
  <diagram id="hKTRN4Eu5D3dBun8HlOk" name="Страница — 2">
    <mxGraphModel dx="1222" dy="714" grid="1" gridSize="10" guides="1" tooltips="1" connect="1" arrows="1" fold="1" page="1" pageScale="1" pageWidth="827" pageHeight="1169" math="0" shadow="0">
      <root>
        <mxCell id="0" />
        <mxCell id="1" parent="0" />
        <mxCell id="Z0ue60KEQzysiuTv03bT-1" value="Пользователь" style="shape=umlActor;verticalLabelPosition=bottom;verticalAlign=top;html=1;outlineConnect=0;" parent="1" vertex="1">
          <mxGeometry x="140" y="40" width="30" height="60" as="geometry" />
        </mxCell>
        <mxCell id="Z0ue60KEQzysiuTv03bT-2" value="Приложение" style="rounded=0;whiteSpace=wrap;html=1;" parent="1" vertex="1">
          <mxGeometry x="290" y="40" width="120" height="60" as="geometry" />
        </mxCell>
        <mxCell id="Z0ue60KEQzysiuTv03bT-3" value="Журнал" style="rounded=0;whiteSpace=wrap;html=1;" parent="1" vertex="1">
          <mxGeometry x="500" y="40" width="120" height="60" as="geometry" />
        </mxCell>
        <mxCell id="Z0ue60KEQzysiuTv03bT-4" value="Корреспонденция" style="rounded=0;whiteSpace=wrap;html=1;" parent="1" vertex="1">
          <mxGeometry x="707" y="40" width="120" height="60" as="geometry" />
        </mxCell>
        <mxCell id="Z0ue60KEQzysiuTv03bT-5" value="" style="rounded=0;whiteSpace=wrap;html=1;" parent="1" vertex="1">
          <mxGeometry x="150" y="130" width="10" height="770" as="geometry" />
        </mxCell>
        <mxCell id="Z0ue60KEQzysiuTv03bT-6" value="" style="endArrow=none;dashed=1;html=1;dashPattern=1 3;strokeWidth=2;rounded=0;" parent="1" edge="1">
          <mxGeometry width="50" height="50" relative="1" as="geometry">
            <mxPoint x="350" y="180" as="sourcePoint" />
            <mxPoint x="350" y="120" as="targetPoint" />
          </mxGeometry>
        </mxCell>
        <mxCell id="Z0ue60KEQzysiuTv03bT-8" value="" style="endArrow=none;dashed=1;html=1;dashPattern=1 3;strokeWidth=2;rounded=0;" parent="1" edge="1">
          <mxGeometry width="50" height="50" relative="1" as="geometry">
            <mxPoint x="350" y="380" as="sourcePoint" />
            <mxPoint x="350" y="340" as="targetPoint" />
          </mxGeometry>
        </mxCell>
        <mxCell id="Z0ue60KEQzysiuTv03bT-10" value="" style="endArrow=none;dashed=1;html=1;dashPattern=1 3;strokeWidth=2;rounded=0;" parent="1" edge="1" source="b9I3FtaCnOZ5W_pDFeEo-1">
          <mxGeometry width="50" height="50" relative="1" as="geometry">
            <mxPoint x="350" y="880" as="sourcePoint" />
            <mxPoint x="350" y="540" as="targetPoint" />
          </mxGeometry>
        </mxCell>
        <mxCell id="Z0ue60KEQzysiuTv03bT-12" value="" style="endArrow=none;dashed=1;html=1;dashPattern=1 3;strokeWidth=2;rounded=0;" parent="1" source="Z0ue60KEQzysiuTv03bT-13" edge="1">
          <mxGeometry width="50" height="50" relative="1" as="geometry">
            <mxPoint x="559" y="880" as="sourcePoint" />
            <mxPoint x="559.29" y="120" as="targetPoint" />
          </mxGeometry>
        </mxCell>
        <mxCell id="Z0ue60KEQzysiuTv03bT-14" value="" style="endArrow=none;dashed=1;html=1;dashPattern=1 3;strokeWidth=2;rounded=0;" parent="1" source="Z0ue60KEQzysiuTv03bT-15" target="Z0ue60KEQzysiuTv03bT-13" edge="1">
          <mxGeometry width="50" height="50" relative="1" as="geometry">
            <mxPoint x="559" y="880" as="sourcePoint" />
            <mxPoint x="559.29" y="120" as="targetPoint" />
          </mxGeometry>
        </mxCell>
        <mxCell id="Z0ue60KEQzysiuTv03bT-13" value="" style="rounded=0;whiteSpace=wrap;html=1;" parent="1" vertex="1">
          <mxGeometry x="555" y="180" width="10" height="140" as="geometry" />
        </mxCell>
        <mxCell id="Z0ue60KEQzysiuTv03bT-16" value="" style="endArrow=none;dashed=1;html=1;dashPattern=1 3;strokeWidth=2;rounded=0;" parent="1" source="Z0ue60KEQzysiuTv03bT-17" target="Z0ue60KEQzysiuTv03bT-15" edge="1">
          <mxGeometry width="50" height="50" relative="1" as="geometry">
            <mxPoint x="559" y="880" as="sourcePoint" />
            <mxPoint x="560" y="320" as="targetPoint" />
          </mxGeometry>
        </mxCell>
        <mxCell id="Z0ue60KEQzysiuTv03bT-15" value="" style="rounded=0;whiteSpace=wrap;html=1;" parent="1" vertex="1">
          <mxGeometry x="555" y="380" width="10" height="140" as="geometry" />
        </mxCell>
        <mxCell id="Z0ue60KEQzysiuTv03bT-18" value="" style="endArrow=none;dashed=1;html=1;dashPattern=1 3;strokeWidth=2;rounded=0;" parent="1" target="Z0ue60KEQzysiuTv03bT-17" edge="1">
          <mxGeometry width="50" height="50" relative="1" as="geometry">
            <mxPoint x="559" y="880" as="sourcePoint" />
            <mxPoint x="560" y="520" as="targetPoint" />
          </mxGeometry>
        </mxCell>
        <mxCell id="Z0ue60KEQzysiuTv03bT-17" value="" style="rounded=0;whiteSpace=wrap;html=1;" parent="1" vertex="1">
          <mxGeometry x="555" y="584.5" width="10" height="140" as="geometry" />
        </mxCell>
        <mxCell id="Z0ue60KEQzysiuTv03bT-19" value="" style="endArrow=none;dashed=1;html=1;dashPattern=1 3;strokeWidth=2;rounded=0;" parent="1" source="Z0ue60KEQzysiuTv03bT-20" edge="1">
          <mxGeometry width="50" height="50" relative="1" as="geometry">
            <mxPoint x="766" y="883.809552873884" as="sourcePoint" />
            <mxPoint x="766.29" y="120" as="targetPoint" />
          </mxGeometry>
        </mxCell>
        <mxCell id="Z0ue60KEQzysiuTv03bT-21" value="" style="endArrow=none;dashed=1;html=1;dashPattern=1 3;strokeWidth=2;rounded=0;" parent="1" target="Z0ue60KEQzysiuTv03bT-20" edge="1">
          <mxGeometry width="50" height="50" relative="1" as="geometry">
            <mxPoint x="765" y="880" as="sourcePoint" />
            <mxPoint x="766.29" y="120" as="targetPoint" />
          </mxGeometry>
        </mxCell>
        <mxCell id="Z0ue60KEQzysiuTv03bT-20" value="" style="rounded=0;whiteSpace=wrap;html=1;" parent="1" vertex="1">
          <mxGeometry x="760" y="195" width="10" height="110" as="geometry" />
        </mxCell>
        <mxCell id="Z0ue60KEQzysiuTv03bT-22" value="" style="rounded=0;whiteSpace=wrap;html=1;" parent="1" vertex="1">
          <mxGeometry x="762" y="395" width="10" height="110" as="geometry" />
        </mxCell>
        <mxCell id="Z0ue60KEQzysiuTv03bT-31" value="" style="endArrow=classic;html=1;rounded=0;exitX=1.029;exitY=0.098;exitDx=0;exitDy=0;exitPerimeter=0;entryX=-0.334;entryY=0.151;entryDx=0;entryDy=0;entryPerimeter=0;" parent="1" source="Z0ue60KEQzysiuTv03bT-5" edge="1">
          <mxGeometry width="50" height="50" relative="1" as="geometry">
            <mxPoint x="180" y="210" as="sourcePoint" />
            <mxPoint x="341.65999999999985" y="204.16000000000008" as="targetPoint" />
          </mxGeometry>
        </mxCell>
        <mxCell id="Z0ue60KEQzysiuTv03bT-32" value="создание()" style="edgeLabel;html=1;align=center;verticalAlign=middle;resizable=0;points=[];" parent="Z0ue60KEQzysiuTv03bT-31" vertex="1" connectable="0">
          <mxGeometry x="0.3651" y="-1" relative="1" as="geometry">
            <mxPoint x="-25" y="-11" as="offset" />
          </mxGeometry>
        </mxCell>
        <mxCell id="Z0ue60KEQzysiuTv03bT-33" value="" style="endArrow=classic;html=1;rounded=0;exitX=1.029;exitY=0.098;exitDx=0;exitDy=0;exitPerimeter=0;entryX=-0.157;entryY=0.211;entryDx=0;entryDy=0;entryPerimeter=0;" parent="1" target="Z0ue60KEQzysiuTv03bT-13" edge="1">
          <mxGeometry width="50" height="50" relative="1" as="geometry">
            <mxPoint x="355" y="211" as="sourcePoint" />
            <mxPoint x="537" y="210" as="targetPoint" />
          </mxGeometry>
        </mxCell>
        <mxCell id="Z0ue60KEQzysiuTv03bT-34" value="создание()" style="edgeLabel;html=1;align=center;verticalAlign=middle;resizable=0;points=[];" parent="Z0ue60KEQzysiuTv03bT-33" vertex="1" connectable="0">
          <mxGeometry x="0.3651" y="-1" relative="1" as="geometry">
            <mxPoint x="-25" y="-11" as="offset" />
          </mxGeometry>
        </mxCell>
        <mxCell id="Z0ue60KEQzysiuTv03bT-37" value="" style="endArrow=classic;html=1;rounded=0;entryX=0;entryY=0.25;entryDx=0;entryDy=0;" parent="1" target="Z0ue60KEQzysiuTv03bT-20" edge="1">
          <mxGeometry width="50" height="50" relative="1" as="geometry">
            <mxPoint x="560" y="223" as="sourcePoint" />
            <mxPoint x="680" y="200" as="targetPoint" />
          </mxGeometry>
        </mxCell>
        <mxCell id="Z0ue60KEQzysiuTv03bT-38" value="Создание&lt;br&gt;корреспонденции" style="edgeLabel;html=1;align=center;verticalAlign=middle;resizable=0;points=[];" parent="Z0ue60KEQzysiuTv03bT-37" vertex="1" connectable="0">
          <mxGeometry x="0.7311" y="1" relative="1" as="geometry">
            <mxPoint x="-64" y="-30" as="offset" />
          </mxGeometry>
        </mxCell>
        <mxCell id="Z0ue60KEQzysiuTv03bT-47" value="" style="endArrow=classic;html=1;rounded=0;exitX=1.029;exitY=0.098;exitDx=0;exitDy=0;exitPerimeter=0;entryX=-0.334;entryY=0.151;entryDx=0;entryDy=0;entryPerimeter=0;" parent="1" edge="1">
          <mxGeometry width="50" height="50" relative="1" as="geometry">
            <mxPoint x="162" y="398.5" as="sourcePoint" />
            <mxPoint x="344" y="397.5" as="targetPoint" />
          </mxGeometry>
        </mxCell>
        <mxCell id="Z0ue60KEQzysiuTv03bT-48" value="Редактирование()" style="edgeLabel;html=1;align=center;verticalAlign=middle;resizable=0;points=[];" parent="Z0ue60KEQzysiuTv03bT-47" vertex="1" connectable="0">
          <mxGeometry x="0.3651" y="-1" relative="1" as="geometry">
            <mxPoint x="-25" y="-11" as="offset" />
          </mxGeometry>
        </mxCell>
        <mxCell id="Z0ue60KEQzysiuTv03bT-49" value="" style="endArrow=classic;html=1;rounded=0;exitX=1.029;exitY=0.098;exitDx=0;exitDy=0;exitPerimeter=0;entryX=-0.157;entryY=0.211;entryDx=0;entryDy=0;entryPerimeter=0;" parent="1" edge="1">
          <mxGeometry width="50" height="50" relative="1" as="geometry">
            <mxPoint x="357" y="404.5" as="sourcePoint" />
            <mxPoint x="555" y="403.5" as="targetPoint" />
          </mxGeometry>
        </mxCell>
        <mxCell id="Z0ue60KEQzysiuTv03bT-50" value="Редактирование()" style="edgeLabel;html=1;align=center;verticalAlign=middle;resizable=0;points=[];" parent="Z0ue60KEQzysiuTv03bT-49" vertex="1" connectable="0">
          <mxGeometry x="0.3651" y="-1" relative="1" as="geometry">
            <mxPoint x="-25" y="-11" as="offset" />
          </mxGeometry>
        </mxCell>
        <mxCell id="Z0ue60KEQzysiuTv03bT-51" value="" style="endArrow=classic;html=1;rounded=0;exitX=1;exitY=0.25;exitDx=0;exitDy=0;entryX=0;entryY=0.25;entryDx=0;entryDy=0;" parent="1" edge="1">
          <mxGeometry width="50" height="50" relative="1" as="geometry">
            <mxPoint x="567" y="408.5" as="sourcePoint" />
            <mxPoint x="762" y="416.5" as="targetPoint" />
          </mxGeometry>
        </mxCell>
        <mxCell id="Z0ue60KEQzysiuTv03bT-52" value="Редактирование&lt;br&gt;корреспонденции" style="edgeLabel;html=1;align=center;verticalAlign=middle;resizable=0;points=[];" parent="Z0ue60KEQzysiuTv03bT-51" vertex="1" connectable="0">
          <mxGeometry x="0.7311" y="1" relative="1" as="geometry">
            <mxPoint x="-64" y="-30" as="offset" />
          </mxGeometry>
        </mxCell>
        <mxCell id="Z0ue60KEQzysiuTv03bT-61" value="" style="endArrow=classic;html=1;rounded=0;exitX=1.029;exitY=0.098;exitDx=0;exitDy=0;exitPerimeter=0;entryX=-0.334;entryY=0.151;entryDx=0;entryDy=0;entryPerimeter=0;" parent="1" edge="1">
          <mxGeometry width="50" height="50" relative="1" as="geometry">
            <mxPoint x="162" y="621" as="sourcePoint" />
            <mxPoint x="344" y="620" as="targetPoint" />
          </mxGeometry>
        </mxCell>
        <mxCell id="Z0ue60KEQzysiuTv03bT-62" value="Удаление()" style="edgeLabel;html=1;align=center;verticalAlign=middle;resizable=0;points=[];" parent="Z0ue60KEQzysiuTv03bT-61" vertex="1" connectable="0">
          <mxGeometry x="0.3651" y="-1" relative="1" as="geometry">
            <mxPoint x="-25" y="-11" as="offset" />
          </mxGeometry>
        </mxCell>
        <mxCell id="Z0ue60KEQzysiuTv03bT-63" value="" style="endArrow=classic;html=1;rounded=0;exitX=1.029;exitY=0.098;exitDx=0;exitDy=0;exitPerimeter=0;entryX=-0.157;entryY=0.211;entryDx=0;entryDy=0;entryPerimeter=0;" parent="1" edge="1">
          <mxGeometry width="50" height="50" relative="1" as="geometry">
            <mxPoint x="357" y="627" as="sourcePoint" />
            <mxPoint x="555" y="626" as="targetPoint" />
          </mxGeometry>
        </mxCell>
        <mxCell id="Z0ue60KEQzysiuTv03bT-64" value="Удаление()" style="edgeLabel;html=1;align=center;verticalAlign=middle;resizable=0;points=[];" parent="Z0ue60KEQzysiuTv03bT-63" vertex="1" connectable="0">
          <mxGeometry x="0.3651" y="-1" relative="1" as="geometry">
            <mxPoint x="-25" y="-11" as="offset" />
          </mxGeometry>
        </mxCell>
        <mxCell id="b9I3FtaCnOZ5W_pDFeEo-2" value="" style="endArrow=none;dashed=1;html=1;dashPattern=1 3;strokeWidth=2;rounded=0;" edge="1" parent="1" target="b9I3FtaCnOZ5W_pDFeEo-1">
          <mxGeometry width="50" height="50" relative="1" as="geometry">
            <mxPoint x="350" y="880" as="sourcePoint" />
            <mxPoint x="350" y="540" as="targetPoint" />
          </mxGeometry>
        </mxCell>
        <mxCell id="b9I3FtaCnOZ5W_pDFeEo-1" value="" style="rounded=0;whiteSpace=wrap;html=1;" vertex="1" parent="1">
          <mxGeometry x="345" y="130" width="10" height="770" as="geometry" />
        </mxCell>
        <mxCell id="b9I3FtaCnOZ5W_pDFeEo-4" value="" style="endArrow=block;dashed=1;endFill=0;endSize=12;html=1;rounded=0;exitX=0;exitY=0.75;exitDx=0;exitDy=0;entryX=1;entryY=0.75;entryDx=0;entryDy=0;" edge="1" parent="1" source="Z0ue60KEQzysiuTv03bT-20" target="Z0ue60KEQzysiuTv03bT-13">
          <mxGeometry width="160" relative="1" as="geometry">
            <mxPoint x="707" y="300" as="sourcePoint" />
            <mxPoint x="597" y="380" as="targetPoint" />
          </mxGeometry>
        </mxCell>
        <mxCell id="b9I3FtaCnOZ5W_pDFeEo-5" value="корреспонденция создана&lt;br&gt;и добавлена в список&amp;nbsp;" style="edgeLabel;html=1;align=center;verticalAlign=middle;resizable=0;points=[];" vertex="1" connectable="0" parent="b9I3FtaCnOZ5W_pDFeEo-4">
          <mxGeometry x="-0.0213" y="2" relative="1" as="geometry">
            <mxPoint as="offset" />
          </mxGeometry>
        </mxCell>
        <mxCell id="b9I3FtaCnOZ5W_pDFeEo-6" value="" style="endArrow=block;dashed=1;endFill=0;endSize=12;html=1;rounded=0;exitX=-0.5;exitY=0.857;exitDx=0;exitDy=0;exitPerimeter=0;" edge="1" parent="1" source="Z0ue60KEQzysiuTv03bT-13">
          <mxGeometry width="160" relative="1" as="geometry">
            <mxPoint x="360" y="290" as="sourcePoint" />
            <mxPoint x="360" y="300" as="targetPoint" />
          </mxGeometry>
        </mxCell>
        <mxCell id="b9I3FtaCnOZ5W_pDFeEo-7" value="уведомить о создании&lt;br style=&quot;border-color: var(--border-color);&quot;&gt;корреспонденции" style="edgeLabel;html=1;align=center;verticalAlign=middle;resizable=0;points=[];" vertex="1" connectable="0" parent="b9I3FtaCnOZ5W_pDFeEo-6">
          <mxGeometry x="-0.4418" relative="1" as="geometry">
            <mxPoint x="-28" as="offset" />
          </mxGeometry>
        </mxCell>
        <mxCell id="b9I3FtaCnOZ5W_pDFeEo-8" value="" style="endArrow=block;dashed=1;endFill=0;endSize=12;html=1;rounded=0;exitX=-0.5;exitY=0.857;exitDx=0;exitDy=0;exitPerimeter=0;" edge="1" parent="1">
          <mxGeometry width="160" relative="1" as="geometry">
            <mxPoint x="345" y="305" as="sourcePoint" />
            <mxPoint x="160" y="310" as="targetPoint" />
          </mxGeometry>
        </mxCell>
        <mxCell id="b9I3FtaCnOZ5W_pDFeEo-9" value="уведомить о создании&lt;br style=&quot;border-color: var(--border-color);&quot;&gt;корреспонденции" style="edgeLabel;html=1;align=center;verticalAlign=middle;resizable=0;points=[];" vertex="1" connectable="0" parent="b9I3FtaCnOZ5W_pDFeEo-8">
          <mxGeometry x="-0.4418" relative="1" as="geometry">
            <mxPoint x="-28" as="offset" />
          </mxGeometry>
        </mxCell>
        <mxCell id="b9I3FtaCnOZ5W_pDFeEo-10" value="" style="endArrow=block;dashed=1;endFill=0;endSize=12;html=1;rounded=0;exitX=0;exitY=0.75;exitDx=0;exitDy=0;entryX=1;entryY=0.75;entryDx=0;entryDy=0;" edge="1" parent="1">
          <mxGeometry width="160" relative="1" as="geometry">
            <mxPoint x="762" y="490" as="sourcePoint" />
            <mxPoint x="567" y="497" as="targetPoint" />
          </mxGeometry>
        </mxCell>
        <mxCell id="b9I3FtaCnOZ5W_pDFeEo-11" value="корреспонденция&lt;br style=&quot;border-color: var(--border-color);&quot;&gt;изменена" style="edgeLabel;html=1;align=center;verticalAlign=middle;resizable=0;points=[];" vertex="1" connectable="0" parent="b9I3FtaCnOZ5W_pDFeEo-10">
          <mxGeometry x="-0.0213" y="2" relative="1" as="geometry">
            <mxPoint as="offset" />
          </mxGeometry>
        </mxCell>
        <mxCell id="b9I3FtaCnOZ5W_pDFeEo-13" value="" style="endArrow=block;dashed=1;endFill=0;endSize=12;html=1;rounded=0;exitX=-0.5;exitY=0.857;exitDx=0;exitDy=0;exitPerimeter=0;" edge="1" parent="1">
          <mxGeometry width="160" relative="1" as="geometry">
            <mxPoint x="555" y="505" as="sourcePoint" />
            <mxPoint x="360" y="505" as="targetPoint" />
          </mxGeometry>
        </mxCell>
        <mxCell id="b9I3FtaCnOZ5W_pDFeEo-14" value="уведомить о изменении&lt;br style=&quot;border-color: var(--border-color);&quot;&gt;корреспонденции" style="edgeLabel;html=1;align=center;verticalAlign=middle;resizable=0;points=[];" vertex="1" connectable="0" parent="b9I3FtaCnOZ5W_pDFeEo-13">
          <mxGeometry x="-0.4418" relative="1" as="geometry">
            <mxPoint x="-28" as="offset" />
          </mxGeometry>
        </mxCell>
        <mxCell id="b9I3FtaCnOZ5W_pDFeEo-15" value="" style="endArrow=block;dashed=1;endFill=0;endSize=12;html=1;rounded=0;" edge="1" parent="1">
          <mxGeometry width="160" relative="1" as="geometry">
            <mxPoint x="340" y="514" as="sourcePoint" />
            <mxPoint x="160" y="514.23" as="targetPoint" />
          </mxGeometry>
        </mxCell>
        <mxCell id="b9I3FtaCnOZ5W_pDFeEo-16" value="уведомить о изменении&lt;br style=&quot;border-color: var(--border-color);&quot;&gt;корреспонденции" style="edgeLabel;html=1;align=center;verticalAlign=middle;resizable=0;points=[];" vertex="1" connectable="0" parent="b9I3FtaCnOZ5W_pDFeEo-15">
          <mxGeometry x="-0.4418" relative="1" as="geometry">
            <mxPoint x="-28" as="offset" />
          </mxGeometry>
        </mxCell>
        <mxCell id="b9I3FtaCnOZ5W_pDFeEo-17" value="" style="endArrow=block;dashed=1;endFill=0;endSize=12;html=1;rounded=0;exitX=-0.5;exitY=0.857;exitDx=0;exitDy=0;exitPerimeter=0;" edge="1" parent="1">
          <mxGeometry width="160" relative="1" as="geometry">
            <mxPoint x="555" y="700" as="sourcePoint" />
            <mxPoint x="360" y="700" as="targetPoint" />
          </mxGeometry>
        </mxCell>
        <mxCell id="b9I3FtaCnOZ5W_pDFeEo-18" value="уведомить о удалении&lt;br style=&quot;border-color: var(--border-color);&quot;&gt;корреспонденции" style="edgeLabel;html=1;align=center;verticalAlign=middle;resizable=0;points=[];" vertex="1" connectable="0" parent="b9I3FtaCnOZ5W_pDFeEo-17">
          <mxGeometry x="-0.4418" relative="1" as="geometry">
            <mxPoint x="-28" as="offset" />
          </mxGeometry>
        </mxCell>
        <mxCell id="b9I3FtaCnOZ5W_pDFeEo-19" value="" style="endArrow=block;dashed=1;endFill=0;endSize=12;html=1;rounded=0;exitX=0;exitY=0.75;exitDx=0;exitDy=0;" edge="1" parent="1" source="b9I3FtaCnOZ5W_pDFeEo-1">
          <mxGeometry width="160" relative="1" as="geometry">
            <mxPoint x="340" y="710" as="sourcePoint" />
            <mxPoint x="160" y="710" as="targetPoint" />
          </mxGeometry>
        </mxCell>
        <mxCell id="b9I3FtaCnOZ5W_pDFeEo-20" value="уведомить о удалении&lt;br style=&quot;border-color: var(--border-color);&quot;&gt;корреспонденции" style="edgeLabel;html=1;align=center;verticalAlign=middle;resizable=0;points=[];" vertex="1" connectable="0" parent="b9I3FtaCnOZ5W_pDFeEo-19">
          <mxGeometry x="-0.4418" relative="1" as="geometry">
            <mxPoint x="-28" as="offset" />
          </mxGeometry>
        </mxCell>
      </root>
    </mxGraphModel>
  </diagram>
  <diagram id="AgxaowWLDYzOhdU9LDkv" name="Страница — 3">
    <mxGraphModel dx="794" dy="464" grid="1" gridSize="10" guides="1" tooltips="1" connect="1" arrows="1" fold="1" page="1" pageScale="1" pageWidth="827" pageHeight="1169" math="0" shadow="0">
      <root>
        <mxCell id="0" />
        <mxCell id="1" parent="0" />
        <mxCell id="40H1_zb5vofzHNlxqlsB-1" value="" style="rounded=0;whiteSpace=wrap;html=1;" vertex="1" parent="1">
          <mxGeometry x="260" y="40" width="260" height="210" as="geometry" />
        </mxCell>
        <mxCell id="40H1_zb5vofzHNlxqlsB-2" value="" style="endArrow=none;html=1;rounded=0;" edge="1" parent="1">
          <mxGeometry width="50" height="50" relative="1" as="geometry">
            <mxPoint x="260" y="70" as="sourcePoint" />
            <mxPoint x="520" y="70" as="targetPoint" />
          </mxGeometry>
        </mxCell>
        <mxCell id="Hja7BKoznAKXLQYz9rlS-2" value="&amp;lt;device&amp;gt;&lt;br&gt;server(OS = Linux)" style="text;html=1;strokeColor=none;fillColor=none;align=center;verticalAlign=middle;whiteSpace=wrap;rounded=0;" parent="1" vertex="1">
          <mxGeometry x="230" y="40" width="320" height="30" as="geometry" />
        </mxCell>
        <mxCell id="40H1_zb5vofzHNlxqlsB-3" value="" style="rounded=0;whiteSpace=wrap;html=1;" vertex="1" parent="1">
          <mxGeometry x="300" y="80" width="180" height="160" as="geometry" />
        </mxCell>
        <mxCell id="40H1_zb5vofzHNlxqlsB-4" value="" style="endArrow=none;html=1;rounded=0;" edge="1" parent="1">
          <mxGeometry width="50" height="50" relative="1" as="geometry">
            <mxPoint x="300" y="110" as="sourcePoint" />
            <mxPoint x="480" y="110" as="targetPoint" />
          </mxGeometry>
        </mxCell>
        <mxCell id="40H1_zb5vofzHNlxqlsB-5" value="&quot;executionEnviroment&quot;&lt;br&gt;Apache" style="text;html=1;strokeColor=none;fillColor=none;align=center;verticalAlign=middle;whiteSpace=wrap;rounded=0;" vertex="1" parent="1">
          <mxGeometry x="230" y="80" width="320" height="30" as="geometry" />
        </mxCell>
        <mxCell id="40H1_zb5vofzHNlxqlsB-6" value="MySQL" style="rounded=0;whiteSpace=wrap;html=1;" vertex="1" parent="1">
          <mxGeometry x="330" y="130" width="120" height="70" as="geometry" />
        </mxCell>
        <mxCell id="40H1_zb5vofzHNlxqlsB-7" value="" style="rounded=0;whiteSpace=wrap;html=1;" vertex="1" parent="1">
          <mxGeometry x="84" y="360" width="150" height="120" as="geometry" />
        </mxCell>
        <mxCell id="40H1_zb5vofzHNlxqlsB-8" value="&quot;device&quot;&lt;br&gt;android Client" style="text;html=1;strokeColor=none;fillColor=none;align=center;verticalAlign=middle;whiteSpace=wrap;rounded=0;" vertex="1" parent="1">
          <mxGeometry x="84" y="370" width="150" height="30" as="geometry" />
        </mxCell>
        <mxCell id="40H1_zb5vofzHNlxqlsB-9" value="" style="rounded=0;whiteSpace=wrap;html=1;" vertex="1" parent="1">
          <mxGeometry x="324" y="360" width="150" height="120" as="geometry" />
        </mxCell>
        <mxCell id="40H1_zb5vofzHNlxqlsB-10" value="&quot;device&quot;&lt;br&gt;IOSClient" style="text;html=1;strokeColor=none;fillColor=none;align=center;verticalAlign=middle;whiteSpace=wrap;rounded=0;" vertex="1" parent="1">
          <mxGeometry x="324" y="370" width="150" height="30" as="geometry" />
        </mxCell>
        <mxCell id="40H1_zb5vofzHNlxqlsB-11" value="" style="rounded=0;whiteSpace=wrap;html=1;" vertex="1" parent="1">
          <mxGeometry x="594" y="360" width="150" height="120" as="geometry" />
        </mxCell>
        <mxCell id="40H1_zb5vofzHNlxqlsB-12" value="&quot;device&quot;&lt;br&gt;PS Client" style="text;html=1;strokeColor=none;fillColor=none;align=center;verticalAlign=middle;whiteSpace=wrap;rounded=0;" vertex="1" parent="1">
          <mxGeometry x="594" y="370" width="150" height="30" as="geometry" />
        </mxCell>
        <mxCell id="40H1_zb5vofzHNlxqlsB-13" value="" style="endArrow=classic;html=1;rounded=0;entryX=0;entryY=1;entryDx=0;entryDy=0;exitX=0.5;exitY=0;exitDx=0;exitDy=0;" edge="1" parent="1" source="40H1_zb5vofzHNlxqlsB-7" target="40H1_zb5vofzHNlxqlsB-1">
          <mxGeometry width="50" height="50" relative="1" as="geometry">
            <mxPoint x="170" y="310" as="sourcePoint" />
            <mxPoint x="220" y="260" as="targetPoint" />
          </mxGeometry>
        </mxCell>
        <mxCell id="40H1_zb5vofzHNlxqlsB-14" value="LAN" style="edgeLabel;html=1;align=center;verticalAlign=middle;resizable=0;points=[];" vertex="1" connectable="0" parent="40H1_zb5vofzHNlxqlsB-13">
          <mxGeometry x="0.3265" y="-1" relative="1" as="geometry">
            <mxPoint x="-27" y="2" as="offset" />
          </mxGeometry>
        </mxCell>
        <mxCell id="40H1_zb5vofzHNlxqlsB-15" value="" style="endArrow=classic;html=1;rounded=0;entryX=0.531;entryY=1.016;entryDx=0;entryDy=0;entryPerimeter=0;" edge="1" parent="1" target="40H1_zb5vofzHNlxqlsB-1">
          <mxGeometry width="50" height="50" relative="1" as="geometry">
            <mxPoint x="398" y="360" as="sourcePoint" />
            <mxPoint x="391" y="260" as="targetPoint" />
          </mxGeometry>
        </mxCell>
        <mxCell id="40H1_zb5vofzHNlxqlsB-16" value="LAN" style="edgeLabel;html=1;align=center;verticalAlign=middle;resizable=0;points=[];" vertex="1" connectable="0" parent="40H1_zb5vofzHNlxqlsB-15">
          <mxGeometry x="0.3265" y="-1" relative="1" as="geometry">
            <mxPoint x="-19" y="11" as="offset" />
          </mxGeometry>
        </mxCell>
        <mxCell id="40H1_zb5vofzHNlxqlsB-17" value="" style="endArrow=classic;html=1;rounded=0;entryX=1;entryY=1;entryDx=0;entryDy=0;exitX=0.5;exitY=0;exitDx=0;exitDy=0;" edge="1" parent="1" source="40H1_zb5vofzHNlxqlsB-11" target="40H1_zb5vofzHNlxqlsB-1">
          <mxGeometry width="50" height="50" relative="1" as="geometry">
            <mxPoint x="618.5" y="270" as="sourcePoint" />
            <mxPoint x="719.5" y="160" as="targetPoint" />
          </mxGeometry>
        </mxCell>
        <mxCell id="40H1_zb5vofzHNlxqlsB-18" value="LAN" style="edgeLabel;html=1;align=center;verticalAlign=middle;resizable=0;points=[];" vertex="1" connectable="0" parent="40H1_zb5vofzHNlxqlsB-17">
          <mxGeometry x="0.3265" y="-1" relative="1" as="geometry">
            <mxPoint x="23" y="4" as="offset" />
          </mxGeometry>
        </mxCell>
      </root>
    </mxGraphModel>
  </diagram>
  <diagram id="upGhoCAbMg5uAZWXv8CX" name="Страница — 4">
    <mxGraphModel dx="794" dy="464" grid="1" gridSize="10" guides="1" tooltips="1" connect="1" arrows="1" fold="1" page="1" pageScale="1" pageWidth="827" pageHeight="1169" math="0" shadow="0">
      <root>
        <mxCell id="0" />
        <mxCell id="1" parent="0" />
        <mxCell id="KZXCCLxqRrOYYYPX9HS0-1" value="Web-приложение" style="html=1;dropTarget=0;whiteSpace=wrap;" parent="1" vertex="1">
          <mxGeometry x="220" y="80" width="180" height="40" as="geometry" />
        </mxCell>
        <mxCell id="KZXCCLxqRrOYYYPX9HS0-2" value="" style="shape=module;jettyWidth=8;jettyHeight=4;" parent="KZXCCLxqRrOYYYPX9HS0-1" vertex="1">
          <mxGeometry x="1" width="20" height="20" relative="1" as="geometry">
            <mxPoint x="-27" y="7" as="offset" />
          </mxGeometry>
        </mxCell>
        <mxCell id="KZXCCLxqRrOYYYPX9HS0-3" value="&lt;p style=&quot;line-height: 120%;&quot;&gt;Apache&lt;/p&gt;" style="html=1;dropTarget=0;whiteSpace=wrap;align=center;" parent="1" vertex="1">
          <mxGeometry x="530" y="80" width="180" height="40" as="geometry" />
        </mxCell>
        <mxCell id="KZXCCLxqRrOYYYPX9HS0-4" value="" style="shape=module;jettyWidth=8;jettyHeight=4;" parent="KZXCCLxqRrOYYYPX9HS0-3" vertex="1">
          <mxGeometry x="1" width="20" height="20" relative="1" as="geometry">
            <mxPoint x="-27" y="7" as="offset" />
          </mxGeometry>
        </mxCell>
        <mxCell id="KZXCCLxqRrOYYYPX9HS0-5" value="" style="rounded=0;whiteSpace=wrap;html=1;" parent="1" vertex="1">
          <mxGeometry x="530" y="120" width="180" height="190" as="geometry" />
        </mxCell>
        <mxCell id="KZXCCLxqRrOYYYPX9HS0-6" value="&lt;p style=&quot;line-height: 120%;&quot;&gt;Mysql&lt;/p&gt;" style="html=1;dropTarget=0;whiteSpace=wrap;align=center;" parent="1" vertex="1">
          <mxGeometry x="560" y="140" width="120" height="50" as="geometry" />
        </mxCell>
        <mxCell id="KZXCCLxqRrOYYYPX9HS0-7" value="" style="shape=module;jettyWidth=8;jettyHeight=4;" parent="KZXCCLxqRrOYYYPX9HS0-6" vertex="1">
          <mxGeometry x="1" width="20" height="20" relative="1" as="geometry">
            <mxPoint x="-27" y="7" as="offset" />
          </mxGeometry>
        </mxCell>
        <mxCell id="KZXCCLxqRrOYYYPX9HS0-8" value="" style="rounded=0;whiteSpace=wrap;html=1;" parent="1" vertex="1">
          <mxGeometry x="220" y="120" width="180" height="190" as="geometry" />
        </mxCell>
        <mxCell id="KbC5h0YYEkCA5De8zJRD-1" value="" style="rounded=0;orthogonalLoop=1;jettySize=auto;html=1;endArrow=halfCircle;endFill=0;endSize=6;strokeWidth=1;sketch=0;exitX=1;exitY=0.5;exitDx=0;exitDy=0;" edge="1" target="KbC5h0YYEkCA5De8zJRD-3" parent="1" source="KbC5h0YYEkCA5De8zJRD-4">
          <mxGeometry relative="1" as="geometry">
            <mxPoint x="440" y="140" as="sourcePoint" />
          </mxGeometry>
        </mxCell>
        <mxCell id="KbC5h0YYEkCA5De8zJRD-2" value="" style="rounded=0;orthogonalLoop=1;jettySize=auto;html=1;endArrow=oval;endFill=0;sketch=0;sourcePerimeterSpacing=0;targetPerimeterSpacing=0;endSize=10;exitX=-0.011;exitY=0.214;exitDx=0;exitDy=0;exitPerimeter=0;" edge="1" target="KbC5h0YYEkCA5De8zJRD-3" parent="1" source="KZXCCLxqRrOYYYPX9HS0-5">
          <mxGeometry relative="1" as="geometry">
            <mxPoint x="440" y="185" as="sourcePoint" />
          </mxGeometry>
        </mxCell>
        <mxCell id="KbC5h0YYEkCA5De8zJRD-3" value="" style="ellipse;whiteSpace=wrap;html=1;align=center;aspect=fixed;fillColor=none;strokeColor=none;resizable=0;perimeter=centerPerimeter;rotatable=0;allowArrows=0;points=[];outlineConnect=1;" vertex="1" parent="1">
          <mxGeometry x="460" y="180" width="10" height="10" as="geometry" />
        </mxCell>
        <mxCell id="KbC5h0YYEkCA5De8zJRD-4" value="" style="rounded=0;whiteSpace=wrap;html=1;" vertex="1" parent="1">
          <mxGeometry x="400" y="210" width="10" height="10" as="geometry" />
        </mxCell>
        <mxCell id="KbC5h0YYEkCA5De8zJRD-5" value="" style="rounded=0;whiteSpace=wrap;html=1;" vertex="1" parent="1">
          <mxGeometry x="250" y="180" width="130" height="105" as="geometry" />
        </mxCell>
        <mxCell id="KbC5h0YYEkCA5De8zJRD-6" value="Web API" style="html=1;dropTarget=0;whiteSpace=wrap;" vertex="1" parent="1">
          <mxGeometry x="250" y="140" width="130" height="40" as="geometry" />
        </mxCell>
        <mxCell id="KbC5h0YYEkCA5De8zJRD-7" value="" style="shape=module;jettyWidth=8;jettyHeight=4;" vertex="1" parent="KbC5h0YYEkCA5De8zJRD-6">
          <mxGeometry x="1" width="20" height="20" relative="1" as="geometry">
            <mxPoint x="-27" y="7" as="offset" />
          </mxGeometry>
        </mxCell>
        <mxCell id="KbC5h0YYEkCA5De8zJRD-8" value="LAN" style="rounded=0;whiteSpace=wrap;html=1;" vertex="1" parent="1">
          <mxGeometry x="290" y="220" width="50" height="42.5" as="geometry" />
        </mxCell>
        <mxCell id="dFTLBIlPHrmcD7PNMW2l-2" value="&amp;laquo;Annotation&amp;raquo;&lt;br/&gt;&lt;b&gt;Component&lt;/b&gt;" style="html=1;dropTarget=0;whiteSpace=wrap;" vertex="1" parent="1">
          <mxGeometry x="350" y="420" width="170" height="90" as="geometry" />
        </mxCell>
        <mxCell id="dFTLBIlPHrmcD7PNMW2l-3" value="" style="shape=module;jettyWidth=8;jettyHeight=4;" vertex="1" parent="dFTLBIlPHrmcD7PNMW2l-2">
          <mxGeometry x="1" width="20" height="20" relative="1" as="geometry">
            <mxPoint x="-27" y="7" as="offset" />
          </mxGeometry>
        </mxCell>
      </root>
    </mxGraphModel>
  </diagram>
</mxfile>
